<?xml version="1.0" encoding="UTF-8"?>
<svg version="1.1" xmlns="http://www.w3.org/2000/svg" width="752" height="752">
<path d="M0 0 C4.20562272 2.49122875 7.24654003 6.22775566 9.5625 10.5 C9.5625 11.49 9.5625 12.48 9.5625 13.5 C10.14021652 13.48889694 10.71793304 13.47779388 11.31315613 13.46635437 C17.33141606 13.35565189 23.34938636 13.28028795 29.3684082 13.2253418 C31.61397044 13.20021277 33.859451 13.16610385 36.10473633 13.12280273 C39.33435218 13.06208224 42.56288584 13.03377369 45.79296875 13.01171875 C46.79522995 12.98591232 47.79749115 12.9601059 48.8301239 12.93351746 C55.81596307 12.9307126 55.81596307 12.9307126 59.52905273 15.76220703 C60.20009033 16.66567871 60.87112793 17.56915039 61.5625 18.5 C62.13726074 19.21051514 62.71202148 19.92103027 63.30419922 20.65307617 C63.81998535 21.35924072 64.33577148 22.06540527 64.8671875 22.79296875 C65.44774902 23.58405029 66.02831055 24.37513184 66.62646484 25.19018555 C67.22410645 26.01429932 67.82174805 26.83841309 68.4375 27.6875 C69.05447754 28.53159424 69.67145508 29.37568848 70.30712891 30.24536133 C74.46441437 35.94667161 78.57945527 41.67517143 82.5625 47.5 C83.43132812 47.16226563 84.30015625 46.82453125 85.1953125 46.4765625 C86.34773438 46.03054687 87.50015625 45.58453125 88.6875 45.125 C89.82445312 44.68414062 90.96140625 44.24328125 92.1328125 43.7890625 C95.25532513 42.61545297 98.39065631 41.53157226 101.5625 40.5 C101.51609375 39.90574219 101.4696875 39.31148437 101.421875 38.69921875 C101.00362965 29.09451297 103.76086676 20.73551067 109.8828125 13.2734375 C117.756264 4.96053754 128.83109156 -0.14968328 140.26953125 -0.66796875 C141.63796036 -0.68238722 143.00649539 -0.68861923 144.375 -0.6875 C145.08841553 -0.68886963 145.80183105 -0.69023926 146.53686523 -0.69165039 C150.2152924 -0.6575792 153.58869342 -0.46776255 157.125 0.5625 C161.71587166 1.81455591 165.24609054 1.04170832 169.80078125 -0.0234375 C183.81171984 -2.44116665 197.37976046 0.05919143 209.34375 7.80859375 C216.82223823 13.50962439 221.75421875 21.23036409 223.5625 30.5 C223.62874507 32.24886981 223.64802595 34.00002748 223.625 35.75 C223.61597656 36.64203125 223.60695313 37.5340625 223.59765625 38.453125 C223.58025391 39.46632813 223.58025391 39.46632813 223.5625 40.5 C224.09617187 40.67015625 224.62984375 40.8403125 225.1796875 41.015625 C231.0796171 42.93463324 236.82554469 45.14054239 242.5625 47.5 C243.41908203 46.29730469 243.41908203 46.29730469 244.29296875 45.0703125 C246.51704663 41.94961684 248.74768605 38.83364455 250.97851562 35.71777344 C252.66268078 33.35973455 254.33906218 30.99626143 256.015625 28.6328125 C257.17685857 27.00504797 258.33831398 25.37744167 259.5 23.75 C260.33277466 22.57074951 260.33277466 22.57074951 261.18237305 21.36767578 C261.70871338 20.63274902 262.23505371 19.89782227 262.77734375 19.140625 C263.47525024 18.15884277 263.47525024 18.15884277 264.18725586 17.15722656 C266.0737225 14.88395557 267.73325195 13.59297696 270.70756531 13.25949097 C271.53585342 13.26393219 272.36414154 13.26837341 273.2175293 13.27294922 C274.62865242 13.27317581 274.62865242 13.27317581 276.06828308 13.27340698 C277.08086685 13.28372955 278.09345062 13.29405212 279.13671875 13.3046875 C280.69517265 13.30893234 280.69517265 13.30893234 282.28511047 13.31326294 C285.60685697 13.32446718 288.92833485 13.34957236 292.25 13.375 C294.50064715 13.38502948 296.75129852 13.39415538 299.00195312 13.40234375 C304.52222722 13.4244073 310.04234442 13.45788729 315.5625 13.5 C315.68496094 12.73816406 315.80742188 11.97632813 315.93359375 11.19140625 C316.97958495 6.71508365 319.67387998 3.95106739 323.21484375 1.23046875 C329.2553185 -2.38359965 335.72145708 -2.32195259 342.5625 -1.5 C349.28500675 0.24894484 353.09635817 4.65913125 356.5625 10.5 C358.65709207 16.7837762 358.7583848 24.80940943 356.0625 30.9375 C353.05012436 36.03370539 348.12474999 39.64591667 342.5625 41.5 C334.45578339 42.39821965 328.40230545 41.90292717 321.59765625 37.22265625 C318.77925697 34.83702461 317.1863396 32.8214901 315.5625 29.5 C315.5625 28.51 315.5625 27.52 315.5625 26.5 C309.76260038 26.29545989 303.97092882 26.1850665 298.16748047 26.15820312 C296.19828697 26.13626225 294.22919644 26.08950135 292.26123047 26.01660156 C281.51489353 25.27047638 281.51489353 25.27047638 271.73699951 28.81390381 C268.60488866 32.06539153 266.46470558 35.79063043 264.44268799 39.80206299 C263.29893041 42.00844202 261.89420909 43.94925249 260.3984375 45.9296875 C259.77001953 46.80947266 259.77001953 46.80947266 259.12890625 47.70703125 C257.2734375 50.3046875 255.41796875 52.90234375 253.5625 55.5 C253.94921875 55.9846875 254.3359375 56.469375 254.734375 56.96875 C260.35627826 64.2048631 263.47250574 69.35373832 264.125 78.625 C264.63168967 83.64190103 264.63168967 83.64190103 267.70703125 87.34765625 C269.58586206 88.26960041 271.49082935 89.13951929 273.4140625 89.96484375 C285.86123041 96.03399634 294.61767114 108.85808151 299.5625 121.3828125 C301.15144094 126.33583935 301.9500434 131.34439521 302.5625 136.5 C305.64787029 136.53540736 308.72754056 136.49346806 311.8125 136.4375 C313.12154297 136.45393555 313.12154297 136.45393555 314.45703125 136.47070312 C317.00245648 136.40269558 319.13088314 136.26482833 321.5625 135.5 C323.5758154 133.30611977 324.34457074 131.29159034 325.5625 128.5 C329.99190981 123.66086978 334.84023833 121.16647749 341.359375 120.55078125 C347.90668604 120.39986805 352.35962717 121.93596067 357.4375 126.125 C362.69487212 131.21721907 364.6057142 135.81236591 364.9375 143.0625 C364.65699176 149.87651272 361.75545373 155.05581852 357.2109375 159.98828125 C351.97757869 164.78759371 346.32551269 165.04837678 339.49609375 164.84375 C332.37185955 164.00895292 328.13583924 160.62106081 323.69140625 155.18359375 C322.5625 153.5 322.5625 153.5 321.5625 150.5 C315.2925 150.17 309.0225 149.84 302.5625 149.5 C302.335625 151.2325 302.10875 152.965 301.875 154.75 C299.19408292 170.39480381 290.53338845 184.21169818 277.5625 193.5 C275.42187526 194.57295512 273.27584305 195.63517822 271.125 196.6875 C266.70754477 199.11132428 266.70754477 199.11132428 264.53125 203.4765625 C264.25800262 205.72034388 264.04275634 207.97187028 263.8828125 210.2265625 C262.95853422 219.67223568 256.37398167 227.34068147 249.5625 233.5 C241.54658467 239.43813557 233.1329357 242.22065067 223.5625 244.5 C223.5625 248.13 223.5625 251.76 223.5625 255.5 C239.7325 255.5 255.9025 255.5 272.5625 255.5 C273.2225 253.52 273.8825 251.54 274.5625 249.5 C277.72048189 244.58758372 281.89227593 241.5966805 287.5234375 239.9140625 C295.62651523 238.26860993 301.67419859 239.98654619 308.5625 244.5 C313.35524972 249.1698587 315.68958251 254.70357343 316.0625 261.3125 C315.84064404 267.14287455 314.05698397 271.83265475 310.5625 276.5 C304.80855734 281.46793998 299.55414832 283.81737104 291.97265625 283.71875 C285.98446953 283.17525169 280.81446742 280.75196742 276.5625 276.5 C272.5625 270.65081967 272.5625 270.65081967 272.5625 267.5 C256.3925 267.5 240.2225 267.5 223.5625 267.5 C223.2325 270.8 222.9025 274.1 222.5625 277.5 C218.0772496 293.52896257 207.88357268 307.01735577 193.5625 315.5 C185.28106977 319.85439219 178.00252076 322.5 168.5625 322.5 C168.5625 333.39 168.5625 344.28 168.5625 355.5 C170.2125 355.83 171.8625 356.16 173.5625 356.5 C179.46184952 359.93413278 182.75779247 365.01164672 184.5625 371.5 C185.60082653 378.43790912 184.30879332 384.78617787 180.12109375 390.44921875 C175.98234913 395.02968554 171.689287 397.56202284 165.5625 398.5 C158.72472067 398.64460561 152.80009649 397.59385542 147.71484375 392.734375 C142.32084941 386.93057 140.02580449 381.8373314 140.25390625 373.8671875 C141.16075997 366.91081594 144.3802847 362.02342809 149.68359375 357.59375 C151.5625 356.5 151.5625 356.5 156.5625 355.5 C156.5625 344.61 156.5625 333.72 156.5625 322.5 C153.2625 322.17 149.9625 321.84 146.5625 321.5 C130.53353743 317.0147496 117.04514423 306.82107268 108.5625 292.5 C104.20810781 284.21856977 101.5625 276.94002076 101.5625 267.5 C85.3925 267.5 69.2225 267.5 52.5625 267.5 C51.9025 269.48 51.2425 271.46 50.5625 273.5 C45.87304136 278.97103508 40.73553775 282.7955007 33.5546875 283.7734375 C26.92861528 284.09129336 22.07611819 282.11271373 16.5625 278.5 C11.76975028 273.8301413 9.43541749 268.29642657 9.0625 261.6875 C9.28376302 254.78620117 12.15421379 248.97166217 16.9375 244.0625 C23.86682396 239.9379024 29.81525087 238.07608549 37.73828125 240.0390625 C45.19662972 242.59540793 49.08258426 246.54016852 52.5625 253.5 C52.5625 254.16 52.5625 254.82 52.5625 255.5 C68.7325 255.5 84.9025 255.5 101.5625 255.5 C101.5625 251.87 101.5625 248.24 101.5625 244.5 C99.21125 243.943125 99.21125 243.943125 96.8125 243.375 C83.68010411 239.73366815 72.38460605 233.07385392 65.0625 221.3125 C60.47065506 212.89196181 60.47065506 212.89196181 60.65234375 208.16015625 C60.69132691 205.27973369 60.56895423 203.21135299 59.5625 200.5 C56.83055277 198.34631493 53.99025052 196.8991524 50.89453125 195.31640625 C37.53902944 188.0358572 28.65798151 174.67714893 24.21875 160.4140625 C23.40142902 156.78476815 22.97419058 153.19729809 22.5625 149.5 C19.47712971 149.46459264 16.39745944 149.50653194 13.3125 149.5625 C12.00345703 149.54606445 12.00345703 149.54606445 10.66796875 149.52929688 C8.12384913 149.59726954 5.99314459 149.73651196 3.5625 150.5 C2.05691592 152.16379616 1.26650519 153.71259007 0.36474609 155.76049805 C-0.75264081 158.18331657 -2.33763117 159.36675816 -4.5 160.875 C-5.50740234 161.59816406 -5.50740234 161.59816406 -6.53515625 162.3359375 C-11.68846324 165.48929578 -17.61090305 165.01824878 -23.4375 164.5 C-29.68468796 162.78021028 -33.89102254 158.80805015 -37.4375 153.5 C-40.16769829 147.9155035 -40.51634969 141.30328655 -38.8203125 135.32421875 C-36.40655108 129.82383322 -32.56539658 125.60755669 -27.4375 122.5 C-20.73988014 120.13097289 -15.05474826 120.0325515 -8.4375 122.5 C-2.94819433 125.51373645 1.54196038 129.43838113 3.5625 135.5 C9.8325 135.83 16.1025 136.16 22.5625 136.5 C22.789375 134.7675 23.01625 133.035 23.25 131.25 C25.74090754 116.63094956 33.71633419 102.65211842 45.5625 93.5 C47.37416492 92.59217231 49.18675436 91.68568149 51.01513672 90.81201172 C57.2032742 87.92350635 57.2032742 87.92350635 60.6953125 82.26953125 C60.94148298 79.86805969 61.11788487 77.45848333 61.2265625 75.046875 C61.95337609 67.37307574 66.78995955 61.29522769 71.5625 55.5 C70.95664062 54.65179688 70.35078125 53.80359375 69.7265625 52.9296875 C68.05989583 50.59635417 66.39322917 48.26302083 64.7265625 45.9296875 C64.23623535 45.2804834 63.7459082 44.6312793 63.24072266 43.96240234 C61.87793236 41.96282379 60.8224821 40.08014308 59.73974609 37.93212891 C57.17555636 33.2105557 54.64055193 28.55594712 49.31951904 26.73052979 C42.89369732 25.57594515 36.43190118 25.88442649 29.9375 26.125 C27.95969646 26.14703681 25.98181136 26.16271955 24.00390625 26.171875 C19.18604468 26.20790574 14.37742733 26.33019606 9.5625 26.5 C9.43101562 27.098125 9.29953125 27.69625 9.1640625 28.3125 C7.84171825 33.12102453 5.20333325 36.36853304 0.9375 38.8125 C-5.75239735 42.15744867 -12.4622378 42.75783602 -19.86328125 40.88671875 C-25.22692914 38.52254774 -28.48639425 34.4729706 -31.4375 29.5 C-33.53209207 23.2162238 -33.6333848 15.19059057 -30.9375 9.0625 C-24.71823356 -1.458983 -11.02241117 -4.84900646 0 0 Z M-18.4375 13.5 C-20.53851595 16.1740203 -20.43596976 17.54284685 -20.3125 21 C-19.33935747 24.89257014 -18.72745572 26.24897767 -15.4375 28.5 C-12.07575863 29.75411568 -12.07575863 29.75411568 -8.4375 29.5 C-4.39968395 27.10722012 -2.78727244 25.51249917 -1.25 21.0625 C-1.16875137 17.3585607 -1.16875137 17.3585607 -3.4375 14.125 C-8.46975767 9.72177454 -13.1852674 9.14815013 -18.4375 13.5 Z M330.1875 12.5 C327.05837393 16.07614408 326.31306907 17.76081225 326.5625 22.5 C328.98189858 26.58273511 330.49827878 28.17693284 335.0625 29.5625 C338.97879414 29.49256618 340.56845015 28.98078416 343.5625 26.5 C345.66351595 23.8259797 345.56096976 22.45715315 345.4375 19 C344.46435747 15.10742986 343.85245572 13.75102233 340.5625 11.5 C336.00425716 10.06499763 334.33971942 10.03942553 330.1875 12.5 Z M118.93359375 22.33984375 C115.63296246 26.78770301 114.42159573 30.16983413 114.4375 35.625 C114.43492187 36.51445312 114.43234375 37.40390625 114.4296875 38.3203125 C114.31948015 40.47791088 114.31948015 40.47791088 115.5625 41.5 C118.73560978 42.15560119 121.91246697 42.74665159 125.10351562 43.30664062 C130.34921875 44.28671875 130.34921875 44.28671875 132.5625 46.5 C132.8125 49.5 132.8125 49.5 132.5625 52.5 C130.5625 54.5 130.5625 54.5 126.75 54.6875 C124.44797983 54.66523675 122.40847565 54.46834775 120.1484375 54.00390625 C108.29856903 51.69479291 95.95395741 54.12913573 85.88671875 60.7109375 C78.4526645 66.43328514 74.40952436 72.28411806 72.5625 81.5 C73.49449219 81.47679687 74.42648437 81.45359375 75.38671875 81.4296875 C85.73706948 81.28317091 95.4059306 82.43520292 105.5625 84.5 C105.67464844 85.64275391 105.67464844 85.64275391 105.7890625 86.80859375 C106.73238906 94.21648177 108.1950919 100.08832462 113.5625 105.5 C119.54485619 109.7353863 125.32985354 111.15003324 132.5625 111.5 C133.24943763 114.52252556 133.75465562 116.78902419 132.9375 119.8125 C131.01597301 122.17073767 129.54272627 122.11422391 126.5625 122.5 C120.88362135 122.14347847 116.00589044 121.09695842 111.3125 117.8125 C108.37712821 115.78769252 107.71497914 115.50262895 103.9375 115.4375 C97.88237667 117.34374253 92.66551978 120.85437203 89.5625 126.5 C87.98143961 131.11443031 86.72451904 135.76103967 85.5625 140.5 C82.75 141.125 82.75 141.125 79.5625 141.5 C78.5725 140.84 77.5825 140.18 76.5625 139.5 C75.04647206 130.74528008 77.07136417 123.52834683 82.03515625 116.37890625 C86.35311742 110.9789028 91.502004 107.71925743 97.5625 104.5 C97.14031184 102.8501725 96.69925575 101.20516335 96.25 99.5625 C96.00636719 98.64597656 95.76273438 97.72945313 95.51171875 96.78515625 C95.19847656 96.03105469 94.88523437 95.27695312 94.5625 94.5 C83.7191062 90.8855354 71.65081055 94.08938117 61.5625 98.5625 C49.47181519 105.02111701 41.55395259 115.28472326 36.6875 127.9375 C32.59971137 141.9781653 34.85509891 155.71829436 41.5625 168.5 C49.03127011 180.22936396 60.52270947 188.27737692 73.9375 191.75 C81.20096231 193.18742774 88.31626361 192.76021502 95.5625 191.5 C98.56530714 191.3687849 101.56298842 191.28529812 104.5625 191.5 C105.5625 192.5 105.5625 192.5 105.75 195.9375 C105.5625 199.5 105.5625 199.5 103.5625 201.5 C96.86561275 203.7167937 90.56905549 203.73899903 83.5625 203.625 C82.50160156 203.61597656 81.44070313 203.60695313 80.34765625 203.59765625 C77.75236362 203.57427524 75.15755535 203.54150556 72.5625 203.5 C74.6743462 212.87501817 78.3297055 219.67925887 86.4375 225.22265625 C93.53274442 229.48762854 100.38868464 231.33885987 108.5625 232.5 C108.9028125 231.95472656 109.243125 231.40945313 109.59375 230.84765625 C118.57770247 216.86996425 129.49702234 207.55835205 145.5625 202.5 C151.0075 201.51 151.0075 201.51 156.5625 200.5 C156.5625 138.79 156.5625 77.08 156.5625 13.5 C142.87052179 10.45733818 128.89694663 11.08627251 118.93359375 22.33984375 Z M168.5625 13.5 C168.5625 75.21 168.5625 136.92 168.5625 200.5 C174.1725 201.82 179.7825 203.14 185.5625 204.5 C199.42666346 210.80189248 209.13078844 219.15842907 216.5625 232.5 C230.21346706 230.5607972 240.66462206 225.89033158 249.3359375 214.91796875 C251.17226413 211.29794907 251.81043463 207.46828834 252.5625 203.5 C251.5880896 203.52356567 251.5880896 203.52356567 250.59399414 203.54760742 C247.60442069 203.61059337 244.61498751 203.64919021 241.625 203.6875 C240.60341797 203.71263672 239.58183594 203.73777344 238.52929688 203.76367188 C232.03581805 203.82590969 226.51906984 203.21042965 220.5625 200.5 C219.5625 199.5 219.5625 199.5 219.4375 196 C219.5625 192.5 219.5625 192.5 220.5625 191.5 C221.97629519 191.40068381 223.39522849 191.37030705 224.8125 191.375 C225.58078125 191.37242187 226.3490625 191.36984375 227.140625 191.3671875 C229.5625 191.5 229.5625 191.5 232.01171875 191.9921875 C245.35529178 194.64864155 258.42070661 190.87201367 269.5625 183.5 C280.63906219 175.41854023 287.8180613 163.70195875 290.12890625 150.1875 C291.65412234 135.80230405 288.24317937 123.35548143 279.55859375 111.84375 C270.94301823 101.60986423 260.74436783 95.84281591 247.5625 93.5 C238.94659913 92.87996474 238.94659913 92.87996474 230.5625 94.5 C229.53549556 96.82891096 229.53549556 96.82891096 228.875 99.5625 C228.49794922 100.94115234 228.49794922 100.94115234 228.11328125 102.34765625 C227.93152344 103.05792969 227.74976563 103.76820313 227.5625 104.5 C229.16444071 105.48280415 230.76913742 106.46111717 232.375 107.4375 C233.26832031 107.98277344 234.16164063 108.52804687 235.08203125 109.08984375 C237.56953562 110.61009578 237.56953562 110.61009578 240.5625 111.5 C241.5 113.1875 241.5 113.1875 242.5625 115.5 C243.2225 116.44875 243.8825 117.3975 244.5625 118.375 C248.07625704 123.86524537 249.70656142 129.96921549 249.5625 136.5 C248.125 139.5625 248.125 139.5625 246.5625 141.5 C244.2525 141.17 241.9425 140.84 239.5625 140.5 C239.35496094 139.5821875 239.14742188 138.664375 238.93359375 137.71875 C236.57449949 128.32185572 233.73602993 121.98421403 225.5 116.4375 C221.91360288 115.29290517 220.15950517 115.39887597 216.5625 116.5 C215.551875 117.139375 214.54125 117.77875 213.5 118.4375 C208.4587333 121.52329778 202.39454364 122.30178675 196.5625 122.5 C193.95121763 121.55242763 192.90464667 121.16148356 191.625 118.6875 C191.52690716 115.25425057 192.22168738 114.0414537 194.5625 111.5 C196.67578125 110.94921875 196.67578125 110.94921875 199.1875 110.5625 C206.44060506 109.41727289 211.49937012 106.1450383 216 100.375 C218.42351943 95.47262965 218.89281457 89.86629512 219.5625 84.5 C230.68049252 82.50871776 241.23300931 81.00098491 252.5625 81.5 C250.96751823 72.8834318 247.22265052 67.17237489 240.5625 61.5 C228.8143464 53.94872996 216.23883642 51.65354299 202.5625 54.5 C199.83112478 54.71162006 197.31808749 54.6355207 194.5625 54.5 C193.9025 53.84 193.2425 53.18 192.5625 52.5 C192.9375 48.875 192.9375 48.875 193.5625 45.5 C198.91848774 43.56892959 203.91739443 42.2056382 209.5625 41.5 C211.19262838 39.86987162 210.77226456 38.05562555 210.8125 35.8125 C210.73519053 29.02859396 208.20550178 24.39397485 203.5625 19.5 C192.31955797 11.17011147 182.03851205 10.80479759 168.5625 13.5 Z M-25.4375 137.5 C-27.00685594 140.63871188 -26.78951103 143.03855822 -26.4375 146.5 C-24.03672048 149.74811347 -22.29541399 151.18969068 -18.5 152.5625 C-14.42804493 152.47939888 -12.55228893 151.03529331 -9.4375 148.5 C-7.88725536 145.39951072 -8.14757985 142.92105782 -8.4375 139.5 C-9.97909838 136.54526977 -11.11837964 134.97091771 -14.30859375 133.83203125 C-19.33547198 132.87226811 -21.8179804 133.66111558 -25.4375 137.5 Z M335.5625 136.5 C333.06218346 140.25047482 333.02646446 142.05856266 333.5625 146.5 C335.96327952 149.74811347 337.70458601 151.18969068 341.5 152.5625 C345.57195507 152.47939888 347.44771107 151.03529331 350.5625 148.5 C352.11274464 145.39951072 351.85242015 142.92105782 351.5625 139.5 C350.15371904 136.5098357 350.15371904 136.5098357 347.5625 134.5 C342.49558846 133.02598937 339.70765712 133.18387431 335.5625 136.5 Z M125.5625 228.5 C115.98538383 240.16666879 112.46915862 253.65519598 113.5625 268.5 C115.2556879 277.05301772 118.56582152 284.38885809 123.5625 291.5 C124.00207031 292.13550781 124.44164062 292.77101563 124.89453125 293.42578125 C131.96141106 302.61068843 144.23555073 308.6910693 155.5625 310.5 C171.34742479 311.7157581 183.04971163 307.21490944 195.75 298.25 C205.64447912 288.5753982 211.5734602 275.83908983 211.875 262 C211.76233709 248.55086483 206.65928317 236.2728621 197.56640625 226.4140625 C186.64858639 215.98573554 174.02553696 212.14583264 159.1953125 212.28515625 C146.07456531 213.06111442 134.51060896 219.00123818 125.5625 228.5 Z M22.5625 257.5 C21.86402875 260.3396864 21.86402875 262.6603136 22.5625 265.5 C24.55171886 268.4838283 25.94752568 270.10276841 29.5 270.9765625 C33.42313492 271.25890933 35.23362371 270.71925086 38.5625 268.5 C40.78175086 265.17112371 41.32140933 263.36063492 41.0390625 259.4375 C40.16526841 255.88502568 38.5463283 254.48921886 35.5625 252.5 C29.74586797 251.06929615 25.95435094 252.41222359 22.5625 257.5 Z M284.5625 257.5 C283.86402875 260.3396864 283.86402875 262.6603136 284.5625 265.5 C286.55171886 268.4838283 287.94752568 270.10276841 291.5 270.9765625 C295.42313492 271.25890933 297.23362371 270.71925086 300.5625 268.5 C302.78175086 265.17112371 303.32140933 263.36063492 303.0390625 259.4375 C302.16526841 255.88502568 300.5463283 254.48921886 297.5625 252.5 C291.74586797 251.06929615 287.95435094 252.41222359 284.5625 257.5 Z M154.5625 370.5 C153.01225536 373.60048928 153.27257985 376.07894218 153.5625 379.5 C155.35812405 382.25329021 156.61504922 384.02627461 159.5625 385.5 C163.43464182 385.93023798 165.08746371 385.81669086 168.375 383.625 C171.15899199 380.92055063 171.49714155 380.07733296 171.9375 376.1875 C171.86940315 372.40399182 171.86940315 372.40399182 169.4375 369.625 C163.54895504 365.27259721 160.13298082 365.96588771 154.5625 370.5 Z " fill="#FF8249" transform="translate(213.4375,162.5)"/>
<path d="M0 0 C2.75 1.3125 2.75 1.3125 3.75 3.3125 C3.82033769 5.18629605 3.8343022 7.06251102 3.8125 8.9375 C3.80347656 9.94039063 3.79445313 10.94328125 3.78515625 11.9765625 C3.77355469 12.74742187 3.76195312 13.51828125 3.75 14.3125 C4.74 14.3125 5.73 14.3125 6.75 14.3125 C6.69199219 13.48105469 6.63398438 12.64960938 6.57421875 11.79296875 C6.52910156 10.70628906 6.48398437 9.61960937 6.4375 8.5 C6.37949219 7.42105469 6.32148438 6.34210938 6.26171875 5.23046875 C6.75 2.3125 6.75 2.3125 9.06640625 0.37890625 C11.75 -0.6875 11.75 -0.6875 15 0.0625 C17.75 1.3125 17.75 1.3125 18.75 2.3125 C18.82244053 4.33214199 18.83377188 6.35417124 18.8125 8.375 C18.80347656 9.47972656 18.79445313 10.58445312 18.78515625 11.72265625 C18.77355469 12.57730469 18.76195312 13.43195313 18.75 14.3125 C19.74 14.3125 20.73 14.3125 21.75 14.3125 C21.72679687 13.55324219 21.70359375 12.79398437 21.6796875 12.01171875 C21.66164063 11.01785156 21.64359375 10.02398437 21.625 9 C21.60179687 8.01386719 21.57859375 7.02773438 21.5546875 6.01171875 C21.75 3.3125 21.75 3.3125 23.75 0.3125 C26.89870083 -0.87890031 28.27181021 -0.88709839 31.3984375 0.41796875 C33.75 2.3125 33.75 2.3125 34.23828125 5.23046875 C34.18027344 6.30941406 34.12226563 7.38835937 34.0625 8.5 C34.01738281 9.58667969 33.97226562 10.67335938 33.92578125 11.79296875 C33.86777344 12.62441406 33.80976563 13.45585937 33.75 14.3125 C34.53761719 14.43882812 35.32523437 14.56515625 36.13671875 14.6953125 C38.75 15.3125 38.75 15.3125 40.5625 17.1875 C41.75 19.3125 41.75 19.3125 41.75 22.3125 C42.58144531 22.25449219 43.41289062 22.19648438 44.26953125 22.13671875 C45.89955078 22.06904297 45.89955078 22.06904297 47.5625 22 C48.64144531 21.94199219 49.72039062 21.88398438 50.83203125 21.82421875 C53.75 22.3125 53.75 22.3125 55.6796875 24.62890625 C56.75 27.3125 56.75 27.3125 56.0625 30.5625 C54.75 33.3125 54.75 33.3125 52.75 34.3125 C50.87620395 34.38283769 48.99998898 34.3968022 47.125 34.375 C46.12210937 34.36597656 45.11921875 34.35695313 44.0859375 34.34765625 C43.31507813 34.33605469 42.54421875 34.32445312 41.75 34.3125 C41.75 35.3025 41.75 36.2925 41.75 37.3125 C42.58144531 37.25449219 43.41289062 37.19648438 44.26953125 37.13671875 C45.35621094 37.09160156 46.44289063 37.04648437 47.5625 37 C48.64144531 36.94199219 49.72039062 36.88398438 50.83203125 36.82421875 C53.75 37.3125 53.75 37.3125 55.6796875 39.62890625 C56.75 42.3125 56.75 42.3125 56.0625 45.5625 C54.75 48.3125 54.75 48.3125 52.75 49.3125 C50.87620395 49.38283769 48.99998898 49.3968022 47.125 49.375 C46.12210937 49.36597656 45.11921875 49.35695313 44.0859375 49.34765625 C43.31507813 49.33605469 42.54421875 49.32445312 41.75 49.3125 C41.75 50.3025 41.75 51.2925 41.75 52.3125 C42.50925781 52.28929687 43.26851563 52.26609375 44.05078125 52.2421875 C45.04464844 52.22414063 46.03851563 52.20609375 47.0625 52.1875 C48.04863281 52.16429687 49.03476562 52.14109375 50.05078125 52.1171875 C52.75 52.3125 52.75 52.3125 55.75 54.3125 C56.94140031 57.46120083 56.94959839 58.83431021 55.64453125 61.9609375 C53.75 64.3125 53.75 64.3125 50.83203125 64.80078125 C49.75308594 64.74277344 48.67414063 64.68476563 47.5625 64.625 C46.47582031 64.57988281 45.38914062 64.53476562 44.26953125 64.48828125 C43.43808594 64.43027344 42.60664063 64.37226563 41.75 64.3125 C41.62367188 65.10011719 41.49734375 65.88773437 41.3671875 66.69921875 C40.75 69.3125 40.75 69.3125 38.875 71.125 C36.75 72.3125 36.75 72.3125 33.75 72.3125 C33.77320313 73.15554688 33.79640625 73.99859375 33.8203125 74.8671875 C33.83835937 75.96289062 33.85640625 77.05859375 33.875 78.1875 C33.89820313 79.27804687 33.92140625 80.36859375 33.9453125 81.4921875 C33.75 84.3125 33.75 84.3125 31.75 86.3125 C25.57508073 86.8738563 25.57508073 86.8738563 23.0390625 85.1484375 C21.23482331 82.57876351 21.45295475 80.72878197 21.5625 77.625 C21.60310547 76.13419922 21.60310547 76.13419922 21.64453125 74.61328125 C21.69673828 73.47439453 21.69673828 73.47439453 21.75 72.3125 C20.76 72.3125 19.77 72.3125 18.75 72.3125 C18.77320313 73.07175781 18.79640625 73.83101563 18.8203125 74.61328125 C18.83835937 75.60714844 18.85640625 76.60101563 18.875 77.625 C18.89820313 78.61113281 18.92140625 79.59726562 18.9453125 80.61328125 C18.75 83.3125 18.75 83.3125 16.75 86.3125 C14.875 86.7109375 14.875 86.7109375 12.75 86.6875 C12.04875 86.69523437 11.3475 86.70296875 10.625 86.7109375 C8.75 86.3125 8.75 86.3125 6.75 83.3125 C6.5546875 80.61328125 6.5546875 80.61328125 6.625 77.625 C6.64304687 76.63113281 6.66109375 75.63726562 6.6796875 74.61328125 C6.70289063 73.85402344 6.72609375 73.09476562 6.75 72.3125 C5.76 72.3125 4.77 72.3125 3.75 72.3125 C3.80220703 73.45138672 3.80220703 73.45138672 3.85546875 74.61328125 C3.88253906 75.60714844 3.90960938 76.60101563 3.9375 77.625 C3.98970703 79.10419922 3.98970703 79.10419922 4.04296875 80.61328125 C3.75 83.3125 3.75 83.3125 2.4609375 85.1484375 C-0.36042278 87.06799313 -2.95617147 86.61193896 -6.25 86.3125 C-8.25 84.3125 -8.25 84.3125 -8.4453125 81.4921875 C-8.42210937 80.40164063 -8.39890625 79.31109375 -8.375 78.1875 C-8.35695313 77.09179688 -8.33890625 75.99609375 -8.3203125 74.8671875 C-8.29710937 74.02414062 -8.27390625 73.18109375 -8.25 72.3125 C-9.03761719 72.18617188 -9.82523437 72.05984375 -10.63671875 71.9296875 C-13.25 71.3125 -13.25 71.3125 -15.0625 69.4375 C-16.25 67.3125 -16.25 67.3125 -16.25 64.3125 C-17.08144531 64.37050781 -17.91289062 64.42851562 -18.76953125 64.48828125 C-20.39955078 64.55595703 -20.39955078 64.55595703 -22.0625 64.625 C-23.14144531 64.68300781 -24.22039062 64.74101562 -25.33203125 64.80078125 C-28.25 64.3125 -28.25 64.3125 -30.1796875 61.99609375 C-31.25 59.3125 -31.25 59.3125 -30.5625 56.0625 C-29.25 53.3125 -29.25 53.3125 -27.25 52.3125 C-25.37620395 52.24216231 -23.49998898 52.2281978 -21.625 52.25 C-20.12066406 52.26353516 -20.12066406 52.26353516 -18.5859375 52.27734375 C-17.81507813 52.28894531 -17.04421875 52.30054688 -16.25 52.3125 C-16.25 51.3225 -16.25 50.3325 -16.25 49.3125 C-17.00925781 49.33570313 -17.76851563 49.35890625 -18.55078125 49.3828125 C-19.54464844 49.40085937 -20.53851563 49.41890625 -21.5625 49.4375 C-23.04169922 49.47230469 -23.04169922 49.47230469 -24.55078125 49.5078125 C-27.25 49.3125 -27.25 49.3125 -30.25 47.3125 C-31.44140031 44.16379917 -31.44959839 42.79068979 -30.14453125 39.6640625 C-28.25 37.3125 -28.25 37.3125 -25.33203125 36.82421875 C-23.71361328 36.91123047 -23.71361328 36.91123047 -22.0625 37 C-20.97582031 37.04511719 -19.88914062 37.09023438 -18.76953125 37.13671875 C-17.52236328 37.22373047 -17.52236328 37.22373047 -16.25 37.3125 C-16.25 36.3225 -16.25 35.3325 -16.25 34.3125 C-17.38888672 34.36470703 -17.38888672 34.36470703 -18.55078125 34.41796875 C-19.54464844 34.44503906 -20.53851563 34.47210938 -21.5625 34.5 C-22.54863281 34.53480469 -23.53476562 34.56960938 -24.55078125 34.60546875 C-27.25 34.3125 -27.25 34.3125 -29.05078125 32.91796875 C-30.53144386 30.93571359 -31.10370476 29.79951915 -31.25 27.3125 C-30.14453125 24.69921875 -30.14453125 24.69921875 -28.25 22.3125 C-25.33203125 21.82421875 -25.33203125 21.82421875 -22.0625 22 C-20.97582031 22.04511719 -19.88914062 22.09023438 -18.76953125 22.13671875 C-17.93808594 22.19472656 -17.10664063 22.25273437 -16.25 22.3125 C-16.11207031 21.52488281 -15.97414063 20.73726563 -15.83203125 19.92578125 C-15.18560682 17.02337892 -14.6624361 16.01014022 -12.25 14.3125 C-10.93 14.3125 -9.61 14.3125 -8.25 14.3125 C-8.30800781 13.48105469 -8.36601562 12.64960938 -8.42578125 11.79296875 C-8.47089844 10.70628906 -8.51601563 9.61960937 -8.5625 8.5 C-8.62050781 7.42105469 -8.67851562 6.34210938 -8.73828125 5.23046875 C-8.25 2.3125 -8.25 2.3125 -5.93359375 0.3828125 C-3.25 -0.6875 -3.25 -0.6875 0 0 Z M-3.25 27.3125 C-3.25 37.8725 -3.25 48.4325 -3.25 59.3125 C7.31 59.3125 17.87 59.3125 28.75 59.3125 C28.75 48.7525 28.75 38.1925 28.75 27.3125 C18.19 27.3125 7.63 27.3125 -3.25 27.3125 Z " fill="#FF824A" transform="translate(363.25,380.6875)"/>
<path d="M0 0 C1.24486679 -0.01906403 2.48973358 -0.03812805 3.77232361 -0.05776978 C5.12759514 -0.0572469 6.48286674 -0.05537268 7.83813477 -0.05224609 C9.23292042 -0.06002394 10.62770136 -0.0686941 12.0224762 -0.07821655 C14.94368861 -0.09312621 17.86441756 -0.09257013 20.78564453 -0.08203125 C24.52323072 -0.07044215 28.25883443 -0.10430111 31.9960928 -0.1507206 C34.87615968 -0.18023432 37.75575114 -0.18193394 40.63594246 -0.17570114 C42.01343781 -0.17672568 43.39096042 -0.18716654 44.76830864 -0.20732498 C55.41056418 -0.34397123 55.41056418 -0.34397123 58.73400879 1.72996521 C61.40949153 4.75530979 62.95075871 8.63160761 64.44360352 12.35009766 C68.87938889 22.30687184 68.87938889 22.30687184 75.84204102 30.54931641 C84.42889553 33.70250111 93.91892696 32.69246367 102.84204102 31.54931641 C102.96450195 30.78748047 103.08696289 30.02564453 103.21313477 29.24072266 C104.25912597 24.76440005 106.95342099 22.0003838 110.49438477 19.27978516 C116.53485951 15.66571676 123.0009981 15.72736382 129.84204102 16.54931641 C136.56454776 18.29826125 140.37589919 22.70844765 143.84204102 28.54931641 C145.93663308 34.8330926 146.03792582 42.85872584 143.34204102 48.98681641 C140.32966537 54.08302179 135.404291 57.69523308 129.84204102 59.54931641 C121.78782322 60.44171922 115.65502563 59.98206685 108.87719727 55.34228516 C105.85031562 52.67560824 104.41197331 50.26006546 102.84204102 46.54931641 C102.84204102 45.88931641 102.84204102 45.22931641 102.84204102 44.54931641 C101.89361328 44.55979004 100.94518555 44.57026367 99.96801758 44.58105469 C96.4419511 44.61518349 92.91606072 44.64023809 89.38989258 44.65917969 C87.86512478 44.66922384 86.34037618 44.68286172 84.81567383 44.70019531 C82.62128963 44.72451378 80.4271606 44.7358153 78.23266602 44.74462891 C76.25314941 44.76033936 76.25314941 44.76033936 74.23364258 44.77636719 C69.32241318 44.44758491 69.32241318 44.44758491 66.84204102 42.54931641 C65.02685547 39.96728516 65.02685547 39.96728516 63.20532227 36.73681641 C62.88041306 36.16729248 62.55550385 35.59776855 62.2207489 35.01098633 C61.18849474 33.19598204 60.17148483 31.3729346 59.15454102 29.54931641 C58.45955323 28.32220077 57.7635998 27.09563149 57.06665039 25.86962891 C52.29226664 17.44976765 52.29226664 17.44976765 50.84204102 14.54931641 C50.1493512 14.54122955 49.45666138 14.5331427 48.74298096 14.52481079 C41.54046103 14.43882576 34.33821824 14.33932449 27.13598633 14.23193359 C24.44722211 14.19253629 21.75845951 14.15794852 19.06958008 14.12744141 C15.2070877 14.08183264 11.34495105 14.02383026 7.48266602 13.96337891 C5.67623627 13.94605209 5.67623627 13.94605209 3.83331299 13.92837524 C2.712453 13.90850555 1.59159302 13.88863586 0.43676758 13.86816406 C-0.54918396 13.85484039 -1.5351355 13.84151672 -2.55096436 13.82778931 C-5.27322122 13.53700437 -6.91311193 13.11026224 -9.15795898 11.54931641 C-10.15795898 8.17431641 -10.15795898 8.17431641 -10.15795898 4.54931641 C-7.18206482 0.51010286 -4.89525427 0.04118671 0 0 Z M114.84204102 33.54931641 C113.42854332 36.94349861 113.42854332 36.94349861 113.84204102 40.54931641 C116.23482089 44.58713245 117.82954185 46.19954397 122.27954102 47.73681641 C125.98348032 47.81806504 125.98348032 47.81806504 129.21704102 45.54931641 C132.31655143 42.00701879 132.92555419 40.226054 132.84204102 35.54931641 C131.59928429 32.60594521 130.57869945 31.06497731 127.96704102 29.23681641 C122.29452172 27.40158957 118.57453269 28.89247726 114.84204102 33.54931641 Z " fill="#FF8249" transform="translate(453.157958984375,456.45068359375)"/>
<path d="M0 0 C1.39574684 0.00103811 2.79149664 -0.00000082 4.1872406 -0.00302124 C7.10696285 -0.00284216 10.02557629 0.01793699 12.94506836 0.05419922 C16.68354706 0.09961904 20.42041026 0.10065192 24.15908909 0.08716393 C27.03914197 0.08047522 29.91882776 0.09376007 32.79881096 0.11342239 C34.17707332 0.1211081 35.55537657 0.12343038 36.93365669 0.1202507 C38.86024292 0.1195074 40.78677427 0.1477456 42.71313477 0.17724609 C43.80835953 0.18646088 44.90358429 0.19567566 46.03199768 0.20516968 C49.54720689 0.85072897 50.76822651 1.8723179 52.87109375 4.7265625 C52.87109375 8.3515625 52.87109375 8.3515625 51.87109375 11.7265625 C48.74315131 13.92899198 46.23509177 13.89448517 42.49853516 13.64868164 C40.88458107 13.55898102 40.88458107 13.55898102 39.23802185 13.46746826 C38.0779512 13.39957092 36.91788055 13.33167358 35.72265625 13.26171875 C10.8305315 10.62404262 10.8305315 10.62404262 -12.08935547 17.15429688 C-17.47092328 22.45309246 -19.86933323 29.7493156 -21.3918457 36.9934082 C-22.17939277 39.91377567 -23.06323623 41.53487937 -25.12890625 43.7265625 C-28.63515055 44.8953106 -31.77669285 44.85170517 -35.421875 44.82421875 C-36.48091789 44.82209633 -36.48091789 44.82209633 -37.56135559 44.81993103 C-39.81308251 44.81434014 -42.06470946 44.80178938 -44.31640625 44.7890625 C-45.8443996 44.78404632 -47.37239452 44.77948362 -48.90039062 44.77539062 C-52.6432676 44.7643737 -56.38606998 44.74711537 -60.12890625 44.7265625 C-60.55623047 46.13035156 -60.55623047 46.13035156 -60.9921875 47.5625 C-62.88924669 52.84297404 -66.99564053 56.35930298 -71.9140625 58.99609375 C-78.09897585 61.03591526 -85.57545328 60.8072807 -91.56640625 58.2265625 C-96.66261164 55.21418686 -100.27482292 50.28881249 -102.12890625 44.7265625 C-102.75997087 37.16413242 -103.15114384 29.84784931 -98.12890625 23.7265625 C-91.51588008 17.65907772 -86.34140796 16.34806248 -77.42578125 16.45703125 C-71.7852911 16.91816137 -68.17697475 18.53755165 -64.3125 22.66796875 C-60.12890625 27.93871447 -60.12890625 27.93871447 -60.12890625 31.7265625 C-51.2057922 32.86970977 -41.71576077 33.87974721 -33.12890625 30.7265625 C-26.90369128 25.14537604 -23.6201516 17.23430781 -20.55322266 9.5949707 C-15.54653272 -0.4879227 -10.77196021 -0.15765507 0 0 Z M-89.50390625 33.4765625 C-90.47136441 36.95941188 -90.10359774 39.25422407 -89.12890625 42.7265625 C-86.64490828 45.87992875 -86.64490828 45.87992875 -83.12890625 47.7265625 C-78.3897185 47.97599343 -76.70505033 47.23068857 -73.12890625 44.1015625 C-70.86015762 40.8680018 -70.86015762 40.8680018 -70.94140625 37.1640625 C-72.5337111 32.55475899 -74.02532663 31.33075726 -78.12890625 28.7265625 C-82.89257848 27.79706548 -86.53808867 29.70188558 -89.50390625 33.4765625 Z " fill="#FF8249" transform="translate(256.12890625,456.2734375)"/>
<path d="M0 0 C5.36364789 2.36417101 8.623113 6.41374815 11.57421875 11.38671875 C13.66881082 17.67049495 13.77010355 25.69612818 11.07421875 31.82421875 C8.06184311 36.92042414 3.13646874 40.53263542 -2.42578125 42.38671875 C-9.99442284 43.0183017 -17.29668102 43.40396406 -23.42578125 38.38671875 C-29.42578125 31.97381552 -29.42578125 31.97381552 -29.42578125 27.38671875 C-38.3488953 26.24357148 -47.83892673 25.23353404 -56.42578125 28.38671875 C-62.7562278 34.06225008 -65.80512345 42.0304012 -69.18676758 49.66015625 C-71.9396688 55.71816627 -71.9396688 55.71816627 -75.42578125 58.38671875 C-79.8041162 59.19702014 -84.0493321 59.13293528 -88.48828125 59.01171875 C-89.67228516 59.01816406 -90.85628906 59.02460938 -92.07617188 59.03125 C-100.72370245 58.92346208 -100.72370245 58.92346208 -103.79467773 56.57568359 C-105.42578125 54.38671875 -105.42578125 54.38671875 -105.42578125 50.76171875 C-104.42578125 47.38671875 -104.42578125 47.38671875 -102.91796875 46.1171875 C-100.29923872 45.3496287 -99.02700852 45.47555659 -96.37109375 45.8515625 C-91.06923063 46.47245166 -86.31155585 46.84426337 -81.42578125 44.38671875 C-75.72981676 38.07335057 -72.3266069 29.96919031 -68.97705078 22.23339844 C-67.13382338 18.85095723 -65.48637133 16.74690712 -62.42578125 14.38671875 C-59.63740152 13.94668733 -57.48526072 13.79586443 -54.71875 13.8984375 C-53.63065788 13.90904961 -53.63065788 13.90904961 -52.52058411 13.9198761 C-50.21707422 13.94773469 -47.91604874 14.01044684 -45.61328125 14.07421875 C-44.04625922 14.09931312 -42.47919885 14.12212431 -40.91210938 14.14257812 C-37.08238469 14.19753194 -33.25450328 14.28373649 -29.42578125 14.38671875 C-29.29429687 13.78859375 -29.1628125 13.19046875 -29.02734375 12.57421875 C-27.7049995 7.76569422 -25.0666145 4.51818571 -20.80078125 2.07421875 C-14.1108839 -1.27072992 -7.40104345 -1.87111727 0 0 Z M-17.42578125 16.38671875 C-18.83927894 19.78090096 -18.83927894 19.78090096 -18.42578125 23.38671875 C-16.00638267 27.46945386 -14.49000247 29.06365159 -9.92578125 30.44921875 C-6.00948711 30.37928493 -4.4198311 29.86750291 -1.42578125 27.38671875 C0.62852456 24.77214772 0.57421875 23.32317446 0.57421875 19.94921875 C-0.77733835 15.13429657 -2.23339834 14.04726944 -6.42578125 11.38671875 C-11.18657967 10.19651914 -14.50747535 12.7456976 -17.42578125 16.38671875 Z " fill="#FF8249" transform="translate(585.42578125,332.61328125)"/>
<path d="M0 0 C4.12935543 2.99378268 7.76040266 6.48681998 10.5 10.8125 C10.5 11.8025 10.5 12.7925 10.5 13.8125 C11.47348389 13.78631592 12.44696777 13.76013184 13.44995117 13.7331543 C17.07455302 13.64239979 20.69905527 13.58516099 24.32446289 13.5378418 C25.89104114 13.51275453 27.45750299 13.47867585 29.02368164 13.43530273 C31.28040309 13.37438774 33.53557294 13.34623501 35.79296875 13.32421875 C36.48899704 13.29841232 37.18502533 13.2726059 37.90214539 13.24601746 C41.6993759 13.24384567 43.33064043 13.67637088 46.32324219 16.08178711 C48.13218966 18.35108697 49.66610401 20.44507166 51.03515625 22.9921875 C51.45216797 23.75660156 51.86917969 24.52101563 52.29882812 25.30859375 C52.71583984 26.09363281 53.13285156 26.87867188 53.5625 27.6875 C54.81795931 30.00615839 56.07370384 32.32389107 57.35009766 34.63110352 C58.5 36.8125 58.5 36.8125 59.36474609 38.91381836 C60.25568599 41.12678772 60.25568599 41.12678772 62.5 43.8125 C65.6717685 44.75658329 68.7111089 44.70188961 72 44.625 C73.69792867 44.62371951 75.39588335 44.62996297 77.09375 44.64453125 C77.84333984 44.63139893 78.59292969 44.6182666 79.36523438 44.60473633 C81.87558573 44.84905346 83.40659524 45.40631541 85.5 46.8125 C86.5 50.1875 86.5 50.1875 86.5 53.8125 C84.41730674 56.6075049 83.18461986 57.67631446 79.73852539 58.36181641 C76.34502869 58.41826478 72.95653404 58.45597596 69.5625 58.4375 C68.38236328 58.46972656 67.20222656 58.50195312 65.98632812 58.53515625 C57.45666744 58.54481065 57.45666744 58.54481065 53.53515625 55.54296875 C51.64092271 52.54847048 50.33186533 49.24585659 48.8984375 46.01171875 C44.46265212 36.05494456 44.46265212 36.05494456 37.5 27.8125 C28.91314548 24.65931529 19.42311405 25.66935273 10.5 26.8125 C10.37753906 27.57433594 10.25507813 28.33617187 10.12890625 29.12109375 C9.08291505 33.59741635 6.38862002 36.36143261 2.84765625 39.08203125 C-3.1928185 42.69609965 -9.65895708 42.63445259 -16.5 41.8125 C-23.22250675 40.06355516 -27.03385817 35.65336875 -30.5 29.8125 C-32.59459207 23.5287238 -32.6958848 15.50309057 -30 9.375 C-23.73739752 -1.21979702 -11.16240309 -3.78724391 0 0 Z M-18.5 15.8125 C-19.70236189 19.77322151 -19.92715714 21.80081203 -18.3125 25.625 C-16.35980888 27.98169618 -15.44024566 28.99576509 -12.5 29.8125 C-7.86440314 29.8125 -6.01975916 29.26728927 -2.5 26.1875 C-0.23125137 22.9539393 -0.23125137 22.9539393 -0.3125 19.25 C-1.90480485 14.64069649 -3.39642038 13.41669476 -7.5 10.8125 C-12.24940122 9.62514969 -15.59952569 12.16174527 -18.5 15.8125 Z " fill="#FF8249" transform="translate(185.5,333.1875)"/>
<path d="M0 0 C2.5 0.5625 2.5 0.5625 4.69921875 2.56640625 C6.77631472 6.02222535 6.50297092 7.83510333 6.03710938 11.74316406 C5.62416489 16.00726471 5.63184824 19.63929712 7.5 23.5625 C12.42319663 28.18157393 18.57677657 30.90708189 24.625 33.765625 C26.58567992 34.69297145 28.54411314 35.62508664 30.5 36.5625 C31.40355225 36.99167725 32.30710449 37.42085449 33.23803711 37.86303711 C35.74710215 39.24827844 37.59764007 40.41552633 39.5 42.5625 C40.50379121 46.29203318 40.31281472 49.79442625 40.0625 53.625 C39.70484457 59.13719238 39.70484457 59.13719238 40.5 64.5625 C42.37352921 66.41834429 44.10372072 67.4442481 46.48461914 68.56030273 C51.30906517 70.95937614 53.82780313 75.59724876 55.5 80.5625 C56.40692706 87.6175489 55.8387686 93.78169169 51.5 99.5625 C47.3950761 103.83885924 43.34044173 107.23018231 37.328125 107.93359375 C28.43561809 108.09862936 23.45213017 107.19636987 16.98046875 101.140625 C12.86111185 96.72448446 11.78686622 92.09648493 11.125 86.25 C11.91321417 78.49922729 14.56660621 72.57987357 20.62109375 67.62109375 C22.5 66.5625 22.5 66.5625 27.5 65.5625 C27.5 60.2825 27.5 55.0025 27.5 49.5625 C25.52 48.9025 23.54 48.2425 21.5 47.5625 C19.31843323 46.40776216 17.16714341 45.19469334 15.04296875 43.9375 C14.4545369 43.58993652 13.86610504 43.24237305 13.25984192 42.88427734 C12.02711001 42.15417631 10.79606335 41.42122293 9.56665039 40.68554688 C7.68010219 39.5580788 5.7868293 38.44259202 3.89257812 37.328125 C2.69229135 36.61528499 1.49240673 35.90176729 0.29296875 35.1875 C-0.7947583 34.54039062 -1.88248535 33.89328125 -3.00317383 33.2265625 C-5.5 31.5625 -5.5 31.5625 -6.5 29.5625 C-6.79654768 25.44355496 -6.77802033 21.31586582 -6.8125 17.1875 C-6.84150391 16.03765625 -6.87050781 14.8878125 -6.90039062 13.703125 C-6.90876953 12.59710938 -6.91714844 11.49109375 -6.92578125 10.3515625 C-6.94036377 9.33787598 -6.95494629 8.32418945 -6.9699707 7.27978516 C-6.24645402 3.09654325 -4.13004983 0.92926121 0 0 Z M25.5 80.5625 C23.93064406 83.70121188 24.14798897 86.10105822 24.5 89.5625 C26.92853382 92.8481634 28.62274814 94.27008271 32.5 95.5625 C36.24876504 95.5625 37.66346849 95.01571644 40.5 92.5625 C42.66033874 89.32730146 42.66033874 89.32730146 43.5 85.5625 C42.34114015 81.79620547 41.17916879 80.08493753 38.0625 77.6875 C32.63749301 75.30578961 29.89011637 77.24552319 25.5 80.5625 Z " fill="#FF8249" transform="translate(415.5,483.4375)"/>
<path d="M0 0 C3.375 1 3.375 1 5.375 4 C5.89293229 8.10814472 5.83772768 12.237773 5.875 16.375 C5.91625 17.51195312 5.9575 18.64890625 6 19.8203125 C6.07780496 28.10654051 6.07780496 28.10654051 3.171875 31.80078125 C1.93456561 32.58069665 0.66195077 33.30504658 -0.625 34 C-1.58148438 34.58394531 -2.53796875 35.16789063 -3.5234375 35.76953125 C-6.35412531 37.48266619 -9.20227498 39.1474362 -12.07617188 40.78588867 C-13.88864412 41.82028685 -15.69454451 42.86552161 -17.5 43.91210938 C-26.36245382 49 -26.36245382 49 -28.625 49 C-28.625 54.28 -28.625 59.56 -28.625 65 C-26.975 65.33 -25.325 65.66 -23.625 66 C-18.04217491 69.14541705 -15.33103498 73.61580315 -13.28515625 79.55859375 C-11.35741622 86.68780984 -13.07280763 92.69537787 -16.625 99 C-20.75542405 103.76662681 -25.35300447 106.60199798 -31.67578125 107.37109375 C-39.04569951 107.52113999 -44.05536694 107.04170575 -49.625 102 C-54.46012976 97.26405238 -56.90162412 92.48527333 -57 85.6875 C-56.85523378 79.35184889 -55.35872519 74.84789469 -50.94140625 70.24609375 C-48.00047663 67.62139312 -45.1633392 65.72983439 -41.625 64 C-41.64183838 63.36497559 -41.65867676 62.72995117 -41.67602539 62.07568359 C-41.72656341 59.17411358 -41.70762671 56.27690541 -41.6875 53.375 C-41.71521484 52.37597656 -41.74292969 51.37695312 -41.77148438 50.34765625 C-41.65229107 43.14838092 -41.65229107 43.14838092 -38.97216797 40.15234375 C-36.60010404 38.50351574 -34.23575871 37.2375507 -31.625 36 C-30.6750415 35.5447998 -29.72508301 35.08959961 -28.74633789 34.62060547 C-26.73251538 33.6679245 -24.71851512 32.7156192 -22.7043457 31.76367188 C-13.75988077 27.79219979 -13.75988077 27.79219979 -7.54150391 20.72460938 C-6.71598424 16.69311633 -6.94187778 13.02816242 -7.42578125 8.96875 C-7.625 5 -7.625 5 -5.89453125 1.96875 C-3.625 0 -3.625 0 0 0 Z M-41.625 79 C-43.78533874 82.23519854 -43.78533874 82.23519854 -44.625 86 C-43.48704932 89.69833972 -42.26727373 91.46187877 -39.3125 93.9375 C-35.83501922 95.31231798 -34.16812823 95.18104274 -30.625 94 C-27.02850194 91.34171883 -25.79170909 89.93357093 -25 85.5 C-25.79170909 81.06642907 -27.02850194 79.65828117 -30.625 77 C-35.30028714 75.44157095 -37.87806758 75.7594098 -41.625 79 Z " fill="#FF8249" transform="translate(337.625,484)"/>
<path d="M0 0 C1.06734375 -0.00257813 2.1346875 -0.00515625 3.234375 -0.0078125 C4.91273438 0.00378906 4.91273438 0.00378906 6.625 0.015625 C7.74390625 0.00789063 8.8628125 0.00015625 10.015625 -0.0078125 C11.08296875 -0.00523437 12.1503125 -0.00265625 13.25 0 C14.23226563 0.00225586 15.21453125 0.00451172 16.2265625 0.00683594 C18.625 0.265625 18.625 0.265625 20.625 2.265625 C20.88378906 4.6640625 20.88378906 4.6640625 20.890625 7.640625 C20.89449219 9.24164063 20.89449219 9.24164063 20.8984375 10.875 C20.89070313 11.99390625 20.88296875 13.1128125 20.875 14.265625 C20.88273437 15.38453125 20.89046875 16.5034375 20.8984375 17.65625 C20.89585937 18.72359375 20.89328125 19.7909375 20.890625 20.890625 C20.88836914 21.87289063 20.88611328 22.85515625 20.88378906 23.8671875 C20.625 26.265625 20.625 26.265625 18.625 28.265625 C16.2265625 28.52441406 16.2265625 28.52441406 13.25 28.53125 C12.18265625 28.53382813 11.1153125 28.53640625 10.015625 28.5390625 C8.33726562 28.52746094 8.33726562 28.52746094 6.625 28.515625 C5.50609375 28.52335937 4.3871875 28.53109375 3.234375 28.5390625 C2.16703125 28.53648437 1.0996875 28.53390625 0 28.53125 C-0.98226563 28.52899414 -1.96453125 28.52673828 -2.9765625 28.52441406 C-5.375 28.265625 -5.375 28.265625 -7.375 26.265625 C-7.63378906 23.8671875 -7.63378906 23.8671875 -7.640625 20.890625 C-7.64320313 19.82328125 -7.64578125 18.7559375 -7.6484375 17.65625 C-7.63683594 15.97789062 -7.63683594 15.97789062 -7.625 14.265625 C-7.63273437 13.14671875 -7.64046875 12.0278125 -7.6484375 10.875 C-7.64585937 9.80765625 -7.64328125 8.7403125 -7.640625 7.640625 C-7.63836914 6.65835937 -7.63611328 5.67609375 -7.63378906 4.6640625 C-7.10415251 -0.24456913 -4.21168741 0.00967251 0 0 Z M4.625 12.265625 C4.625 13.585625 4.625 14.905625 4.625 16.265625 C5.945 16.265625 7.265 16.265625 8.625 16.265625 C8.625 14.945625 8.625 13.625625 8.625 12.265625 C7.305 12.265625 5.985 12.265625 4.625 12.265625 Z " fill="#FF824A" transform="translate(369.375,409.734375)"/>
</svg>
